<?xml version="1.0" encoding="UTF-8" standalone="no"?>
<!-- Created with Inkscape (http://www.inkscape.org/) -->

<svg
   version="1.1"
   id="svg2"
   width="1122.52"
   height="793.70135"
   viewBox="0 0 1122.52 793.70135"
   xmlns="http://www.w3.org/2000/svg"
   xmlns:svg="http://www.w3.org/2000/svg">
  <defs
     id="defs6">
    <clipPath
       clipPathUnits="userSpaceOnUse"
       id="clipPath16">
      <path
         d="M 0,595.276 H 841.89 V 0 H 0 Z"
         id="path14" />
    </clipPath>
  </defs>
  <g
     id="g8"
     transform="matrix(1.3333333,0,0,-1.3333333,0,793.70133)">
    <g
       id="g10">
      <g
         id="g12"
         clip-path="url(#clipPath16)">
        <g
           id="g18"
           transform="translate(373.1108,428.7619)">
          <path
             d="m 0,0 h 94.588 c 0.139,-1.549 0.399,-3.09 0.4,-4.632 0.021,-45.238 0.09,-90.475 -0.026,-135.712 -0.036,-14.096 -0.907,-28.143 -6.948,-41.261 -6.462,-14.032 -16.186,-24.281 -32.14,-26.901 -26.587,-4.366 -43.017,10.724 -50.621,30.793 -4.289,11.321 -5.383,23.16 -5.421,35.068 -0.148,46.456 -0.064,92.913 -0.056,139.369 0,0.93 0.123,1.86 0.224,3.276"
             style="fill:#3c00ff;fill-opacity:1;fill-rule:nonzero;stroke:none"
             id="path20" />
        </g>
        <g
           id="g22"
           transform="translate(461.3613,166.5744)">
          <path
             d="m 0,0 c 7.77,4.542 16.571,8.783 24.369,14.414 23.16,16.728 35.839,40.196 40.491,67.91 2.117,12.61 3.064,25.54 3.176,38.337 0.378,43.215 0.144,86.436 0.144,129.654 v 5.264 c 1.132,-0.491 1.902,-0.681 2.506,-1.107 C 83.216,245.62 90.55,233.536 90.624,218.198 90.903,160.213 90.83,102.227 90.69,44.241 90.635,20.782 70.219,0.326 46.845,0.038 30.925,-0.159 15,0 0,0"
             style="fill:#3c00ff;fill-opacity:1;fill-rule:nonzero;stroke:none"
             id="path24" />
        </g>
        <g
           id="g26"
           transform="translate(311.5078,422.1862)">
          <path
             d="m 0,0 c 0,-2.493 0,-4.06 0,-5.626 0.015,-45.526 -0.163,-91.053 0.13,-136.578 0.132,-20.548 3.24,-40.695 11.986,-59.58 11.385,-24.584 29.774,-41.884 54.771,-52.225 0.834,-0.345 1.661,-0.708 2.406,-1.612 -15.496,0 -30.993,-0.087 -46.488,0.067 -3.474,0.034 -7.026,0.575 -10.397,1.446 -20.136,5.198 -34.108,22.948 -34.139,43.653 -0.088,57.314 -0.079,114.628 0.002,171.942 0.021,14.595 6.183,26.374 17.449,35.537 C -3.182,-2.082 -1.952,-1.349 0,0"
             style="fill:#3c00ff;fill-opacity:1;fill-rule:nonzero;stroke:none"
             id="path28" />
        </g>
      </g>
    </g>
  </g>
</svg>
